PathFileType	4	(X/Y/Z)	C:\Users\WrightLab\Desktop\Jo\P2_Trial25.trc
DataRate	CameraRate	NumFrames	NumMarkers	Units	OrigDataRate	OrigDataStartFrame	OrigNumFrames
100.00	100.00	       14	19	mm	100.00	67	       529
Frame#	Time	Headset_Front			Headset_Back			Headset_Left			Headset_Right			Left_Shoulder			Right_Shoulder			Sternum			C7			Left Elbow			Right Elbow			Left Wrist			Right Wrist			Left ASIS			Right ASIS			S2			Left Knee			Right Knee			Left Ankle			Right Ankle			
		X1	Y1	Z1	X2	Y2	Z2	X3	Y3	Z3	X4	Y4	Z4	X5	Y5	Z5	X6	Y6	Z6	X7	Y7	Z7	X8	Y8	Z8	X9	Y9	Z9	X10	Y10	Z10	X11	Y11	Z11	X12	Y12	Z12	X13	Y13	Z13	X14	Y14	Z14	X15	Y15	Z15	X16	Y16	Z16	X17	Y17	Z17	X18	Y18	Z18	X19	Y19	Z19	

67	0.660																			-354.14932	1265.55383	-1179.71191				0.01910	1143.91675	-1112.55383				-124.91564	980.33118	-1193.18811	-607.35181	830.22290	-1268.92004	-354.43561	963.47778	-1151.10571							-152.22501	386.19586	-1231.17090				1.82444	107.02026	-1345.73840				
68	0.670																			-358.98459	1266.25171	-1176.10046				-6.70746	1145.67078	-1102.53857				-130.77223	979.61536	-1187.80872	-613.29626	831.49402	-1264.60913	-360.71445	965.17938	-1147.15564							-165.81798	384.67526	-1222.00525				-10.52812	113.88165	-1338.39526				
69	0.680																			-364.57919	1266.59656	-1172.63721				-10.82442	1146.15271	-1103.46289				-136.31245	981.40967	-1184.17017	-618.34521	832.91504	-1260.65613	-365.46979	965.43188	-1143.37830							-176.16147	388.69876	-1210.78113				-24.35800	120.61689	-1327.91382				
70	0.690																			-370.13193	1267.86938	-1168.68396				-17.97519	1145.73865	-1106.77576				-141.26677	982.36945	-1180.11194	-623.38080	834.49750	-1257.08643	-371.13312	965.13635	-1138.60217							-186.93100	393.20309	-1198.47241				-36.32312	127.87935	-1322.33032				
71	0.700																			-375.68814	1269.16040	-1165.06445				-22.43657	1148.12305	-1094.25720				-146.84341	983.83038	-1177.21069	-627.95288	835.52875	-1252.92883	-376.77451	965.20624	-1134.90735							-197.59663	395.71680	-1188.04834				-49.02731	133.50571	-1313.66907				
72	0.710																			-381.39288	1270.20447	-1161.50720				-29.27042	1147.34497	-1098.23193				-151.99408	985.83649	-1171.94434	-632.28790	836.52869	-1248.26428	-382.25537	967.19940	-1129.56335							-205.77837	400.06573	-1171.75159				-59.66931	139.92726	-1300.68555				
73	0.720																			-387.55750	1271.22046	-1157.46350				-34.70124	1151.88953	-1077.26929				-157.22137	987.46930	-1167.60974	-637.14069	838.11206	-1244.71106	-387.24789	968.94598	-1125.83875							-219.03839	399.87793	-1160.41309				-71.09444	145.12929	-1288.58313				
74	0.730																			-393.92651	1271.80005	-1153.72375				-41.18727	1151.47534	-1086.68811				-163.20192	988.63477	-1160.48975	-640.73419	837.97705	-1238.36292	-392.69232	969.68939	-1125.28894							-229.90834	402.14978	-1148.85840				-82.59283	147.00734	-1276.48535				
75	0.740																			-399.19751	1273.48071	-1149.58057				-45.55905	1154.80042	-1075.76160				-167.71439	991.03210	-1158.59326	-644.52716	839.34735	-1234.39868	-397.03946	971.11285	-1118.88647							-240.37862	405.35757	-1132.30566				-93.20010	153.35780	-1260.96826				
76	0.750																			-404.19006	1274.23816	-1145.57410				-52.37950	1155.99207	-1074.70654				-173.09076	992.99463	-1154.23535	-648.42169	840.75159	-1230.67761	-402.58298	973.40698	-1113.50293							-250.35864	408.97684	-1118.99902				-104.74765	156.23167	-1242.95605				
77	0.760																			-409.67865	1275.55493	-1141.53516				-56.41840	1157.79993	-1069.05798				-178.46538	995.18982	-1149.50330	-651.42194	841.75891	-1225.89990	-407.20413	974.84058	-1109.44812							-260.92673	412.18100	-1103.49670				-115.90858	159.48097	-1230.50647				
78	0.770																			-415.03900	1276.54712	-1137.25830				-61.50333	1160.10693	-1063.39868				-183.65425	997.27997	-1144.35596	-654.80609	842.70416	-1220.13513	-411.75296	977.02258	-1102.80786							-271.50565	414.31149	-1087.77612				-129.75552	161.61597	-1216.01782				
79	0.780							-493.92273	1445.31787	-969.90173										-420.33591	1278.10132	-1132.62830				-66.23312	1161.48401	-1064.34106				-188.87282	998.81500	-1140.25720	-658.00323	843.89453	-1214.84302	-416.80563	977.41449	-1099.19739							-275.58981	421.02310	-1065.01672				-143.24992	163.49788	-1202.62451				
80	0.790							-497.93976	1445.05176	-963.67438										-424.83408	1278.99548	-1127.70032				-70.56336	1165.69092	-1056.20862				-193.64659	1000.30542	-1132.59705	-660.15399	844.94849	-1210.43152	-420.33569	978.95996	-1096.29614							-288.04437	420.83929	-1051.01038				-157.13301	163.96733	-1186.89685				
